<svg width="90" height="73" viewBox="0 0 90 73" fill="none" xmlns="http://www.w3.org/2000/svg">
<g clip-path="url(#clip0_5288_36552)">
<path d="M11.1068 24.65H6.41006C4.3319 24.6349 2.74445 24.0972 1.64667 23.0368C0.54889 21.9764 0 20.5294 0 18.6958V7.56055H11.129V8.80992H4.02837C3.67196 8.85527 3.39381 8.95462 3.19393 9.10579C2.99404 9.25697 2.84492 9.47294 2.74868 9.7537C2.65244 10.0345 2.59639 10.394 2.58158 10.8335C2.56678 11.273 2.55937 11.8032 2.55937 12.4241V14.9466H8.6363V15.9919H2.55937V19.4236C2.55937 20.1817 2.67359 20.8101 2.90415 21.3101C3.13364 21.8101 3.43083 22.2161 3.79464 22.526C4.15845 22.8359 4.56985 23.053 5.02991 23.1739C5.48996 23.2948 5.95001 23.3553 6.41006 23.3553H11.1068V24.6511V24.65Z" fill="#1E120D"/>
<path d="M23.838 14.8331C22.7402 13.8181 21.211 13.3105 19.2523 13.3105C17.19 13.3105 15.5983 13.8181 14.4783 14.8331C13.3583 15.8482 12.7682 17.2347 12.709 18.9916C12.709 19.6891 12.8095 20.3781 13.0093 21.0595C13.2092 21.7408 13.5212 22.3477 13.9443 22.8779C14.3673 23.4081 14.9119 23.8368 15.5803 24.1618C16.2477 24.4879 17.0567 24.6348 18.0065 24.6056C18.6886 24.6812 19.2893 24.8594 19.8097 25.1402C20.3289 25.4198 20.6473 25.909 20.7668 26.6055V27.1508C20.7668 27.424 20.7699 27.6994 20.7774 27.9801C20.7848 28.2598 20.7848 28.5179 20.7774 28.7522C20.7699 28.9865 20.6399 29.3202 20.6251 29.3807C20.6251 29.3807 20.6526 29.3958 20.7001 29.4228C21.3178 29.5642 21.9153 29.8072 22.4304 30.1711C22.5298 30.2068 22.6218 30.2532 22.7106 30.3039C22.7931 30.345 22.8746 30.3892 22.9528 30.4378C23.0343 30.4432 23.0871 30.427 23.0956 30.3784C23.4351 28.4704 23.3473 27.1519 23.3473 27.1519C23.3177 26.8031 23.2542 26.5008 23.158 26.2427C23.0618 25.9846 22.9243 25.7578 22.7466 25.5613C22.5689 25.3637 22.3532 25.179 22.1015 25.0041C21.8487 24.8302 21.5452 24.6445 21.1888 24.4469C22.5541 24.1435 23.6149 23.5226 24.3721 22.5831C25.1293 21.6436 25.5376 20.4472 25.5968 18.9926C25.5228 17.2358 24.9369 15.8492 23.8391 14.8342M23.0374 19.3792C23.0374 20.1373 22.9221 20.7733 22.6927 21.2884C22.4621 21.8035 22.1617 22.2127 21.7905 22.5162C21.4204 22.8196 21.0005 23.0312 20.533 23.1522C20.0656 23.2731 19.6013 23.326 19.1413 23.3109C18.696 23.326 18.2518 23.2774 17.8055 23.163C17.3603 23.0496 16.9563 22.8531 16.5925 22.5723C16.2286 22.2915 15.9251 21.9212 15.6798 21.459C15.4344 20.9968 15.2969 20.418 15.2673 19.7205V18.5845C15.2673 17.8275 15.3815 17.1947 15.6121 16.6872C15.8416 16.1797 16.1419 15.7747 16.5131 15.4713C16.8833 15.1689 17.2989 14.953 17.76 14.8234C18.2201 14.6949 18.6801 14.6377 19.1402 14.6528C19.6003 14.6377 20.0635 14.6906 20.532 14.8126C20.9994 14.9335 21.4183 15.1463 21.7895 15.4486C22.1607 15.7521 22.461 16.1613 22.6916 16.6753C22.9211 17.1904 23.0364 17.8264 23.0364 18.5845V19.3803L23.0374 19.3792Z" fill="#1E120D"/>
<path d="M30.2265 21.2309C30.3449 21.7385 30.5237 22.1434 30.7606 22.4468C30.9975 22.7503 31.2946 22.9662 31.651 23.0947C32.0064 23.2232 32.4157 23.2805 32.8747 23.2653C33.3347 23.2805 33.7578 23.2276 34.1438 23.1066C34.5298 22.9857 34.8598 22.7729 35.1348 22.4706C35.4087 22.1672 35.6202 21.759 35.7693 21.2428C35.9174 20.7277 35.9914 20.0917 35.9914 19.3337V13.2207H38.5508V18.6296C38.5508 20.4783 38.0717 21.9361 37.1146 23.004C36.1574 24.072 34.7805 24.6065 32.9857 24.6065C31.9905 24.6065 31.1455 24.4661 30.4475 24.1864C29.7495 23.9057 29.1826 23.5083 28.7448 22.9932C28.3069 22.4781 27.9875 21.8529 27.7877 21.1186C27.5878 20.3843 27.4873 19.555 27.4873 18.6296V13.2207H30.0467V19.3337C30.0467 20.0917 30.1059 20.7234 30.2244 21.2309" fill="#1E120D"/>
<path d="M43.4236 13.1719H40.8643V24.5803H43.4236V13.1719Z" fill="#1E120D"/>
<path d="M56.6229 21.2865C56.4008 21.984 56.0592 22.5779 55.5992 23.0704C55.1391 23.5628 54.549 23.9418 53.8298 24.2063C53.1096 24.4709 52.2381 24.6037 51.2144 24.6037C50.1906 24.6037 49.4038 24.4709 48.7216 24.2063C48.0384 23.9418 47.4758 23.5628 47.0305 23.0704C46.5853 22.5779 46.2511 21.984 46.029 21.2865C45.8059 20.59 45.68 19.8017 45.6504 18.9238C45.68 18.0448 45.8059 17.25 46.029 16.5373C46.2511 15.8257 46.5853 15.2156 47.0305 14.7081C47.4758 14.2006 48.0395 13.8075 48.7216 13.5268C49.4038 13.2471 50.235 13.1067 51.2144 13.1067C51.8817 13.1067 52.4719 13.1855 52.9837 13.3453C53.4956 13.5041 53.9662 13.6898 54.3967 13.9025L54.4411 7.53906H57.0005V18.9249C56.9709 19.8038 56.8439 20.5921 56.6218 21.2875M54.2179 16.6173C54.0699 16.0946 53.8584 15.6702 53.5834 15.3441C53.3084 15.018 52.9784 14.7837 52.5935 14.639C52.2075 14.4954 51.7844 14.4306 51.3244 14.4457C50.8643 14.4306 50.4413 14.4911 50.0553 14.6271C49.6692 14.7632 49.3393 14.9943 49.0643 15.3204C48.7893 15.6465 48.5789 16.0741 48.4297 16.6043C48.2817 17.1345 48.2076 17.7792 48.2076 18.5361V19.332C48.2076 20.09 48.2817 20.726 48.4297 21.2411C48.5778 21.7562 48.7893 22.1655 49.0643 22.4689C49.3393 22.7723 49.6692 22.984 50.0553 23.1049C50.4413 23.2259 50.8643 23.2788 51.3244 23.2636C51.7844 23.2788 52.2075 23.2215 52.5935 23.093C52.9784 22.9645 53.3095 22.7486 53.5834 22.4451C53.8584 22.1428 54.0688 21.7378 54.2179 21.2292C54.366 20.7217 54.44 20.0889 54.44 19.332V18.5361C54.44 17.7792 54.366 17.1388 54.2179 16.6162" fill="#1E120D"/>
<path d="M70.2671 24.6059H67.6856V24.5378L67.7078 22.2659C67.455 22.7356 67.2065 23.1222 66.9622 23.4245C66.7168 23.728 66.4683 23.9666 66.2166 24.1405C65.9638 24.3154 65.6931 24.4363 65.4043 24.5044C65.1146 24.5724 64.8068 24.6069 64.4811 24.6069C63.5017 24.6069 62.6705 24.4784 61.9883 24.2204C61.3051 23.9634 60.7414 23.5876 60.2962 23.0952C59.8509 22.6028 59.5178 22.0089 59.2946 21.3113C59.0715 20.6148 58.9456 19.8265 58.916 18.9486C58.9456 18.0696 59.0715 17.2824 59.2946 16.5848C59.5178 15.8883 59.8509 15.2934 60.2962 14.8009C60.7414 14.3085 61.3051 13.9295 61.9883 13.665C62.6705 13.4004 63.5017 13.2676 64.4811 13.2676C65.4604 13.2676 66.3763 13.4004 67.0965 13.665C67.8156 13.9295 68.4058 14.3096 68.8658 14.8009C69.3259 15.2934 69.6675 15.8883 69.8896 16.5848C70.1117 17.2824 70.2386 18.0696 70.2682 18.9486V24.6069L70.2671 24.6059ZM67.7078 18.5383C67.7078 17.7802 67.6327 17.1485 67.4846 16.641C67.3366 16.1335 67.125 15.7285 66.8501 15.4251C66.5751 15.1227 66.2451 14.9068 65.8591 14.7772C65.4731 14.6487 65.05 14.5915 64.59 14.6066C64.1299 14.5915 63.7069 14.6444 63.3209 14.7653C62.9349 14.8863 62.6049 15.099 62.3299 15.4013C62.0549 15.7048 61.8434 16.114 61.6954 16.6291C61.5473 17.1442 61.4722 17.7802 61.4722 18.5383V19.3341C61.4722 20.0921 61.5462 20.7282 61.6954 21.2433C61.8434 21.7583 62.0549 22.1676 62.3299 22.4699C62.6049 22.7734 62.9338 22.985 63.3209 23.106C63.7069 23.228 64.1299 23.2809 64.59 23.2658C65.5249 23.296 66.2779 22.9019 66.849 22.0834C67.4201 21.2649 67.7057 20.0986 67.7057 18.5836V18.5383H67.7078Z" fill="#1E120D"/>
<path d="M83.1533 21.2865C82.9312 21.984 82.5896 22.5779 82.1295 23.0704C81.6695 23.5628 81.0793 23.9418 80.3602 24.2063C79.641 24.4709 78.7685 24.6037 77.7447 24.6037C76.721 24.6037 75.9341 24.4709 75.252 24.2063C74.5688 23.9418 74.0051 23.5628 73.5598 23.0704C73.1146 22.5779 72.7804 21.984 72.5583 21.2865C72.3352 20.59 72.2093 19.8017 72.1797 18.9238C72.2093 18.0448 72.3352 17.25 72.5583 16.5373C72.7804 15.8257 73.1146 15.2156 73.5598 14.7081C74.0051 14.2006 74.5688 13.8075 75.252 13.5268C75.9341 13.2471 76.7654 13.1067 77.7447 13.1067C78.4121 13.1067 79.0022 13.1855 79.5141 13.3453C80.026 13.5041 80.4966 13.6898 80.9281 13.9025L80.9725 7.53906H83.5319V18.9249C83.5023 19.8038 83.3754 20.5921 83.1533 21.2875M80.7494 16.6173C80.6013 16.0946 80.3898 15.6702 80.1148 15.3441C79.8398 15.018 79.5099 14.7837 79.1249 14.639C78.7389 14.4954 78.3158 14.4306 77.8558 14.4457C77.3957 14.4306 76.9727 14.4911 76.5867 14.6271C76.2006 14.7632 75.8707 14.9943 75.5957 15.3204C75.3207 15.6465 75.1092 16.0741 74.9612 16.6043C74.8131 17.1345 74.7391 17.7792 74.7391 18.5361V19.332C74.7391 20.09 74.8131 20.726 74.9612 21.2411C75.1092 21.7562 75.3207 22.1655 75.5957 22.4689C75.8696 22.7723 76.1996 22.984 76.5867 23.1049C76.9727 23.2259 77.3957 23.2788 77.8558 23.2636C78.3158 23.2788 78.7389 23.2215 79.1249 23.093C79.5109 22.9645 79.8409 22.7486 80.1148 22.4451C80.3898 22.1428 80.6013 21.7378 80.7494 21.2292C80.8974 20.7217 80.9714 20.0889 80.9714 19.332V18.5361C80.9714 17.7792 80.8974 17.1388 80.7494 16.6162" fill="#1E120D"/>
<path d="M25.7968 62.4981H31.3565L31.309 38.867C31.309 36.8941 31.0075 35.1232 30.4058 33.5542C29.804 31.9852 28.9156 30.6516 27.7438 29.5512C26.7994 28.6658 25.6868 27.9455 24.4124 27.3851C24.5404 28.6722 24.3013 29.981 23.6266 31.0803C24.2157 31.672 24.7117 32.4042 25.1062 33.2875C25.5969 34.3878 25.8423 35.7463 25.8423 37.3628V44.1074H9.25816V37.3628C9.25816 35.7452 9.50353 34.3954 9.99425 33.3112C10.485 32.2281 11.1269 31.3621 11.9191 30.7153C12.7112 30.0685 13.5975 29.6074 14.58 29.332C15.5614 29.0567 16.5439 28.9357 17.5264 28.9681C18.2361 28.9454 18.951 29.007 19.6702 29.1366C19.9367 28.1842 19.7706 27.1777 19.6215 26.1919C19.0219 26.1368 18.4042 26.1055 17.7644 26.1055C13.2337 26.1055 9.77215 27.2458 7.37988 29.5264C4.98761 31.807 3.79253 34.9213 3.79253 38.867V56.0925C3.79253 58.0017 3.78407 59.4811 3.76821 60.5317C3.75128 61.5835 3.72802 62.239 3.69629 62.497H9.3047L9.25711 46.3395H25.8423V60.6538C25.8423 61.6245 25.8264 62.239 25.7947 62.497" fill="#44A82D"/>
<path d="M35.3956 62.4513V38.1895C35.5214 34.437 36.781 31.4772 39.1733 29.31C41.5656 27.1438 44.9626 26.0586 49.3674 26.0586C53.7723 26.0586 56.8118 27.1428 59.1576 29.31C61.5022 31.4783 62.7534 34.437 62.912 38.1895C62.7851 41.2951 61.9136 43.85 60.2976 45.8563C58.6816 47.8627 56.4163 49.1887 53.5016 49.8355C54.262 50.2567 54.9272 50.7091 55.4972 51.194C56.0673 51.6788 56.5432 52.2371 56.9229 52.8677C57.3036 53.4983 57.5955 54.2348 57.8017 55.0749C58.008 55.9161 58.1105 56.8868 58.1105 57.9861V62.4988H52.5032C52.5339 62.4016 52.5582 62.1111 52.574 61.6252C52.5899 61.1403 52.5984 60.6058 52.5984 60.0238V56.821C52.5032 55.753 52.353 54.8881 52.1468 54.2251C51.9406 53.562 51.6159 53.0124 51.1727 52.5751C50.7286 52.1388 50.1511 51.7425 49.4383 51.3862C48.7255 51.0309 47.8149 50.626 46.7055 50.1735C45.8182 49.9478 44.8357 49.5753 43.759 49.058C42.6813 48.5408 41.7147 47.8616 40.8602 47.0204V62.4502H35.3945L35.3956 62.4513ZM40.8612 39.7423C40.9236 41.2303 41.2176 42.4678 41.7401 43.4548C42.2625 44.4417 42.9119 45.2343 43.6882 45.8326C44.4644 46.4319 45.3274 46.8519 46.2782 47.0938C47.229 47.3368 48.1787 47.4415 49.1295 47.4091C50.112 47.4415 51.1019 47.3292 52.1003 47.0701C53.0976 46.8109 53.9933 46.3584 54.7855 45.7116C55.5766 45.0648 56.2185 44.1912 56.7103 43.0909C57.201 41.9916 57.4464 40.6331 57.4464 39.0156V37.317C57.4464 35.7005 57.2 34.3409 56.7103 33.2417C56.2185 32.1424 55.5766 31.2688 54.7855 30.622C53.9933 29.9752 53.0986 29.5227 52.1003 29.2635C51.1019 29.0044 50.112 28.8921 49.1295 28.9234C48.147 28.8921 47.1645 29.013 46.183 29.2873C45.2005 29.5627 44.3132 30.0238 43.5221 30.6706C42.73 31.3185 42.088 32.1834 41.5973 33.2665C41.1055 34.3507 40.8612 35.7005 40.8612 37.318V39.7444V39.7423Z" fill="#44A82D"/>
<path d="M89.9995 62.5953H79.9714C75.5359 62.5629 72.1463 61.4151 69.8016 59.1496C67.457 56.8862 66.2852 53.7968 66.2852 49.8813V26.1055H71.7497V51.6771C71.7497 53.2947 71.9951 54.6369 72.4869 55.7038C72.9776 56.7717 73.6111 57.6367 74.3874 58.2997C75.1636 58.9627 76.0425 59.4238 77.025 59.683C78.0064 59.9422 78.9889 60.0707 79.9714 60.0707H89.9995V62.5942V62.5953Z" fill="#44A82D"/>
<path fill-rule="evenodd" clip-rule="evenodd" d="M41.7398 0.0113383L41.7419 0.0178173C41.8667 1.95828 42.0032 8.14143 37.6766 8.9891C39.8647 11.9932 44.333 11.9932 46.5212 8.9891H46.5117C42.184 8.14251 42.3204 1.95828 42.4452 0.0178173L42.4484 0.0113383C42.2115 -0.00377943 41.9746 -0.00377943 41.7388 0.0113383M47.4921 6.78947C48.1213 3.71842 46.0971 0.600929 43.01 0.0772083V0.079368C41.9767 4.94079 46.1933 6.41585 47.4646 6.78192L47.4921 6.79055V6.78947ZM41.1793 0.079368C38.0985 0.609568 36.0806 3.72058 36.7067 6.78731C39.7325 5.79602 41.9704 3.80588 41.1793 0.0804478V0.079368Z" fill="#44A82D"/>
<path d="M0.552815 67.1233H1.12286V67.9052C1.32168 67.6168 1.52474 67.4063 1.73415 67.2734C2.02181 67.0964 2.32534 67.0078 2.64367 67.0078C2.85837 67.0078 3.06248 67.051 3.25496 67.1363C3.44744 67.2216 3.60608 67.3361 3.72771 67.4797C3.85039 67.6222 3.95615 67.8263 4.04604 68.093C4.23535 67.7378 4.47225 67.4689 4.75674 67.2843C5.04124 67.0996 5.34688 67.0078 5.67473 67.0078C5.98038 67.0078 6.25112 67.0866 6.48485 67.2443C6.71858 67.4019 6.89308 67.6222 7.0073 67.9052C7.12152 68.1881 7.17757 68.6124 7.17757 69.1772V71.6468H6.59484V69.1772C6.59484 68.6924 6.56099 68.3587 6.49331 68.1773C6.42562 67.9959 6.31035 67.849 6.14642 67.7389C5.98249 67.6276 5.78684 67.5726 5.55946 67.5726C5.28342 67.5726 5.03066 67.6557 4.80222 67.822C4.57378 67.9883 4.40668 68.2097 4.30092 68.4872C4.19516 68.7647 4.14228 69.2269 4.14228 69.8759V71.6468H3.57224V69.3305C3.57224 68.7841 3.53945 68.4138 3.47283 68.2183C3.4062 68.0229 3.28986 67.8663 3.12488 67.7486C2.95884 67.6309 2.76212 67.5715 2.53474 67.5715C2.2714 67.5715 2.02498 67.6525 1.79549 67.8144C1.56599 67.9764 1.39677 68.1945 1.28678 68.4688C1.17679 68.7431 1.1218 69.1632 1.1218 69.729V71.6457H0.551758V67.1223L0.552815 67.1233Z" fill="#706F6F"/>
<path d="M12.7939 67.1227V71.6462H12.2323V70.8687C11.9933 71.1657 11.7257 71.3881 11.4285 71.5382C11.1313 71.6883 10.8067 71.7628 10.4534 71.7628C9.82628 71.7628 9.29114 71.5306 8.84695 71.0663C8.40276 70.602 8.18066 70.0372 8.18066 69.372C8.18066 68.7069 8.40487 68.1637 8.85224 67.7005C9.30065 67.2372 9.83897 67.0061 10.4693 67.0061C10.8331 67.0061 11.162 67.085 11.4571 67.2426C11.7522 67.4003 12.0102 67.6378 12.2334 67.9531V67.1217H12.7949L12.7939 67.1227ZM10.5158 67.5676C10.1985 67.5676 9.9056 67.6476 9.63697 67.8063C9.36834 67.965 9.15471 68.1896 8.99607 68.4769C8.83743 68.7652 8.75811 69.0697 8.75811 69.3904C8.75811 69.7111 8.83849 70.0135 8.99818 70.3039C9.15788 70.5944 9.37257 70.8212 9.64331 70.9832C9.91406 71.1451 10.2028 71.2261 10.5116 71.2261C10.8204 71.2261 11.1187 71.1462 11.3979 70.9853C11.6771 70.8244 11.8918 70.6074 12.043 70.3331C12.1932 70.0588 12.2683 69.75 12.2683 69.4066C12.2683 68.8829 12.099 68.4455 11.7617 68.0946C11.4243 67.7426 11.0087 67.5676 10.5148 67.5676H10.5158ZM10.8638 65.002H11.7395L10.538 66.2826H9.97646L10.8638 65.002Z" fill="#706F6F"/>
<path d="M16.3045 67.6153L15.9375 68.0019C15.6329 67.6995 15.3346 67.5484 15.0438 67.5484C14.8587 67.5484 14.7001 67.611 14.5679 67.7352C14.4357 67.8604 14.3701 68.0051 14.3701 68.1714C14.3701 68.3183 14.4241 68.4586 14.533 68.5915C14.6419 68.7275 14.8704 68.8863 15.2183 69.0698C15.6424 69.2944 15.9311 69.5104 16.0834 69.7188C16.2325 69.9294 16.3076 70.167 16.3076 70.4294C16.3076 70.8008 16.1797 71.115 15.9237 71.3731C15.6678 71.6312 15.3484 71.7597 14.9655 71.7597C14.7096 71.7597 14.4664 71.7025 14.2337 71.5891C14.001 71.4757 13.8085 71.3191 13.6562 71.1194L14.0148 70.7036C14.3056 71.0395 14.6144 71.2068 14.9412 71.2068C15.1697 71.2068 15.3643 71.1323 15.525 70.9822C15.6858 70.8321 15.7661 70.6561 15.7661 70.4542C15.7661 70.2879 15.7133 70.14 15.6075 70.0093C15.5017 69.8819 15.2617 69.721 14.8894 69.5266C14.4896 69.316 14.2178 69.1076 14.0729 68.9025C13.9291 68.6973 13.8561 68.463 13.8561 68.1995C13.8561 67.8561 13.9714 67.5699 14.2009 67.3432C14.4304 67.1164 14.7212 67.002 15.0713 67.002C15.4795 67.002 15.8899 67.206 16.3034 67.6131L16.3045 67.6153Z" fill="#706F6F"/>
<path d="M23.9235 68.0617L23.4719 68.349C23.0816 67.8199 22.5486 67.5553 21.8739 67.5553C21.3345 67.5553 20.8861 67.7324 20.5297 68.0866C20.1733 68.4408 19.9945 68.8716 19.9945 69.3781C19.9945 69.7074 20.077 70.0173 20.2409 70.3089C20.4049 70.5994 20.6301 70.825 20.9157 70.9859C21.2012 71.1468 21.5227 71.2267 21.8781 71.2267C22.5285 71.2267 23.0605 70.9622 23.4729 70.4331L23.9245 70.7365C23.713 71.0626 23.4285 71.3142 23.0711 71.4945C22.7136 71.6738 22.3075 71.7634 21.8516 71.7634C21.1515 71.7634 20.5698 71.5367 20.1087 71.082C19.6476 70.6274 19.416 70.0745 19.416 69.4234C19.416 68.985 19.5239 68.579 19.7396 68.2032C19.9554 67.8274 20.2526 67.5348 20.6291 67.3242C21.0066 67.1136 21.4286 67.0078 21.895 67.0078C22.188 67.0078 22.4714 67.0532 22.7443 67.145C23.0171 67.2367 23.2487 67.3555 23.438 67.5024C23.6284 67.6492 23.7892 67.8361 23.9224 68.0639L23.9235 68.0617Z" fill="#706F6F"/>
<path d="M28.7486 70.1449L29.2288 70.403C29.0712 70.7194 28.8893 70.9743 28.683 71.1675C28.4768 71.3619 28.2441 71.5088 27.9861 71.6103C27.728 71.7118 27.4361 71.7625 27.1093 71.7625C26.387 71.7625 25.8212 71.5207 25.414 71.0369C25.0068 70.5531 24.8027 70.0067 24.8027 69.3966C24.8027 68.8232 24.9751 68.3114 25.3199 67.8622C25.7577 67.2909 26.3426 67.0059 27.0766 67.0059C27.8105 67.0059 28.4356 67.2985 28.8861 67.8827C29.2065 68.2963 29.3694 68.8113 29.3747 69.429H25.3876C25.3982 69.9549 25.5631 70.3847 25.8804 70.7216C26.1988 71.0574 26.5911 71.2259 27.0586 71.2259C27.2838 71.2259 27.5038 71.1859 27.7175 71.106C27.9311 71.0261 28.1119 70.9192 28.2621 70.7874C28.4112 70.6546 28.573 70.4408 28.7476 70.1449H28.7486ZM28.7486 68.9269C28.6725 68.6159 28.5614 68.3686 28.4165 68.1829C28.2706 67.9971 28.0792 67.8471 27.8391 67.7337C27.6001 67.6203 27.3484 67.5631 27.085 67.5631C26.6503 67.5631 26.276 67.7056 25.964 67.9918C25.7355 68.2002 25.5631 68.5111 25.4458 68.9269H28.7486Z" fill="#706F6F"/>
<path d="M30.2227 67.1225H30.8054V67.7833C30.9788 67.5231 31.1629 67.3276 31.3553 67.1991C31.5478 67.0706 31.7488 67.0059 31.9582 67.0059C32.1157 67.0059 32.2839 67.0566 32.4626 67.1592L32.1655 67.6494C32.0459 67.5965 31.9455 67.5706 31.864 67.5706C31.6737 67.5706 31.4907 67.6505 31.3141 67.8093C31.1375 67.9691 31.0032 68.2164 30.9111 68.5511C30.8403 68.8092 30.8054 69.3297 30.8054 70.1147V71.6448H30.2227V67.1214V67.1225Z" fill="#706F6F"/>
<path d="M37.2467 68.0617L36.7951 68.349C36.4049 67.8199 35.8718 67.5553 35.1971 67.5553C34.6577 67.5553 34.2093 67.7324 33.8529 68.0866C33.4965 68.4408 33.3178 68.8716 33.3178 69.3781C33.3178 69.7074 33.4003 70.0173 33.5642 70.3089C33.7281 70.5994 33.9534 70.825 34.2389 70.9859C34.5245 71.1468 34.846 71.2267 35.2013 71.2267C35.8517 71.2267 36.3837 70.9622 36.7962 70.4331L37.2478 70.7365C37.0363 71.0626 36.7518 71.3142 36.3943 71.4945C36.0368 71.6738 35.6307 71.7634 35.1749 71.7634C34.4748 71.7634 33.8931 71.5367 33.432 71.082C32.9709 70.6274 32.7393 70.0745 32.7393 69.4234C32.7393 68.985 32.8471 68.579 33.0629 68.2032C33.2786 67.8274 33.5758 67.5348 33.9523 67.3242C34.3299 67.1136 34.7519 67.0078 35.2183 67.0078C35.5112 67.0078 35.7946 67.0532 36.0675 67.145C36.3404 67.2367 36.572 67.3555 36.7613 67.5024C36.9516 67.6492 37.1124 67.8361 37.2457 68.0639L37.2467 68.0617Z" fill="#706F6F"/>
<path d="M42.7568 67.1225V71.6459H42.1952V70.8684C41.9562 71.1654 41.6886 71.3878 41.3914 71.5379C41.0942 71.688 40.7696 71.7625 40.4163 71.7625C39.7892 71.7625 39.254 71.5304 38.8098 71.066C38.3656 70.6017 38.1436 70.037 38.1436 69.3718C38.1436 68.7066 38.3678 68.1634 38.8151 67.7002C39.2635 67.2369 39.8019 67.0059 40.4322 67.0059C40.796 67.0059 41.1249 67.0847 41.42 67.2423C41.715 67.4 41.9731 67.6376 42.1962 67.9529V67.1214H42.7578L42.7568 67.1225ZM40.4787 67.5674C40.1614 67.5674 39.8685 67.6473 39.5999 67.806C39.3312 67.9648 39.1176 68.1894 38.959 68.4766C38.8003 68.7649 38.721 69.0694 38.721 69.3901C38.721 69.7108 38.8014 70.0132 38.9611 70.3037C39.1208 70.5942 39.3355 70.8209 39.6062 70.9829C39.8769 71.1449 40.1657 71.2259 40.4745 71.2259C40.7833 71.2259 41.0815 71.146 41.3607 70.9851C41.64 70.8242 41.8546 70.6071 42.0059 70.3328C42.1561 70.0586 42.2311 69.7497 42.2311 69.4063C42.2311 68.8826 42.0619 68.4453 41.7246 68.0943C41.3872 67.7423 40.9716 67.5674 40.4777 67.5674H40.4787Z" fill="#706F6F"/>
<path d="M50.7723 65.378V71.6476H50.2107V70.8701C49.9717 71.167 49.7041 71.3895 49.407 71.5396C49.1098 71.6897 48.7851 71.7642 48.4319 71.7642C47.8047 71.7642 47.2696 71.532 46.8254 71.0677C46.3812 70.6034 46.1602 70.0386 46.1602 69.3734C46.1602 68.7083 46.3844 68.1651 46.8317 67.7018C47.2801 67.2386 47.8185 67.0075 48.4488 67.0075C48.8126 67.0075 49.1415 67.0863 49.4366 67.244C49.7316 67.4017 49.9897 67.6392 50.2118 67.9545V65.377H50.7734L50.7723 65.378ZM48.4943 67.569C48.177 67.569 47.884 67.6489 47.6154 67.8077C47.3468 67.9664 47.1331 68.191 46.9745 68.4782C46.8159 68.7666 46.7365 69.0711 46.7365 69.3918C46.7365 69.7125 46.8169 70.0149 46.9766 70.3053C47.1363 70.5958 47.351 70.8226 47.6217 70.9845C47.8925 71.1465 48.1812 71.2275 48.49 71.2275C48.7988 71.2275 49.0971 71.1476 49.3763 70.9867C49.6555 70.8258 49.8702 70.6088 50.0214 70.3345C50.1716 70.0602 50.2467 69.7514 50.2467 69.408C50.2467 68.8843 50.0775 68.4469 49.7401 68.096C49.4027 67.744 48.9871 67.569 48.4932 67.569H48.4943Z" fill="#706F6F"/>
<path d="M55.7916 70.1449L56.2717 70.403C56.1141 70.7194 55.9322 70.9743 55.726 71.1675C55.5198 71.3608 55.2871 71.5088 55.0291 71.6103C54.771 71.7118 54.4791 71.7625 54.1523 71.7625C53.43 71.7625 52.8642 71.5207 52.457 71.0369C52.0498 70.5531 51.8457 70.0067 51.8457 69.3966C51.8457 68.8232 52.0181 68.3114 52.3629 67.8622C52.8007 67.2909 53.3856 67.0059 54.1195 67.0059C54.8535 67.0059 55.4785 67.2985 55.9291 67.8827C56.2495 68.2963 56.4124 68.8113 56.4177 69.429H52.4306C52.4411 69.9549 52.6061 70.3847 52.9234 70.7216C53.2417 71.0574 53.6341 71.2259 54.1015 71.2259C54.3268 71.2259 54.5468 71.1859 54.7604 71.106C54.9741 71.0261 55.1549 70.9192 55.3051 70.7874C55.4542 70.6546 55.616 70.4408 55.7905 70.1449H55.7916ZM55.7916 68.9269C55.7154 68.6159 55.6044 68.3686 55.4595 68.1829C55.3135 67.9971 55.1221 67.8471 54.882 67.7337C54.643 67.6203 54.3913 67.5631 54.128 67.5631C53.6933 67.5631 53.3189 67.7056 53.0069 67.9918C52.7785 68.2002 52.6061 68.5111 52.4887 68.9269H55.7916Z" fill="#706F6F"/>
<path d="M59.7178 67.1232H60.2878V69.2354C60.2878 69.7516 60.3153 70.1058 60.3692 70.3001C60.4507 70.5777 60.6061 70.7969 60.8367 70.9567C61.0662 71.1176 61.3401 71.1975 61.6585 71.1975C61.9768 71.1975 62.2465 71.1187 62.4675 70.9621C62.6885 70.8055 62.8419 70.5992 62.9265 70.3444C62.9836 70.1695 63.0122 69.8002 63.0122 69.2343V67.1222H63.5949V69.3423C63.5949 69.9665 63.524 70.4362 63.3813 70.7515C63.2385 71.0679 63.0238 71.3152 62.7383 71.4934C62.4516 71.6726 62.0931 71.7611 61.6616 71.7611C61.2301 71.7611 60.8695 71.6715 60.5808 71.4934C60.292 71.3141 60.0763 71.0647 59.9335 70.745C59.7907 70.4254 59.7199 69.9438 59.7199 69.3002V67.1211L59.7178 67.1232Z" fill="#706F6F"/>
<path d="M67.0886 67.6153L66.7226 68.0019C66.418 67.6995 66.1198 67.5484 65.829 67.5484C65.6439 67.5484 65.4852 67.611 65.353 67.7352C65.2209 67.8593 65.1553 68.0051 65.1553 68.1714C65.1553 68.3183 65.2092 68.4586 65.3181 68.5915C65.4271 68.7275 65.6555 68.8863 66.0035 69.0698C66.4276 69.2944 66.7163 69.5104 66.8686 69.7188C67.0177 69.9294 67.0928 70.167 67.0928 70.4294C67.0928 70.8008 66.9648 71.115 66.7089 71.3731C66.4529 71.6312 66.1336 71.7597 65.7507 71.7597C65.4948 71.7597 65.2515 71.7025 65.0189 71.5891C64.7862 71.4757 64.5937 71.3191 64.4414 71.1194L64.7999 70.7036C65.0908 71.0395 65.3996 71.2068 65.7264 71.2068C65.9548 71.2068 66.1494 71.1323 66.3102 70.9822C66.4709 70.8321 66.5513 70.6561 66.5513 70.4542C66.5513 70.2879 66.4984 70.14 66.3927 70.0093C66.2869 69.8819 66.0468 69.721 65.6746 69.5266C65.2748 69.316 65.003 69.1076 64.8581 68.9025C64.7132 68.6973 64.6424 68.463 64.6424 68.1995C64.6424 67.8561 64.7576 67.5699 64.9871 67.3432C65.2166 67.1164 65.5075 67.002 65.8575 67.002C66.2658 67.002 66.6761 67.206 67.0896 67.6131L67.0886 67.6153Z" fill="#706F6F"/>
<path d="M68.5957 65.4414H69.1657V67.1216H70.07V67.6248H69.1657V71.6451H68.5957V67.6248H67.8184V67.1216H68.5957V65.4414Z" fill="#706F6F"/>
<path d="M74.6549 70.1449L75.135 70.403C74.9774 70.7194 74.7955 70.9743 74.5893 71.1675C74.3831 71.3608 74.1504 71.5088 73.8923 71.6103C73.6343 71.7118 73.3424 71.7625 73.0156 71.7625C72.2933 71.7625 71.7274 71.5207 71.3203 71.0369C70.9131 70.5531 70.709 70.0067 70.709 69.3966C70.709 68.8232 70.8814 68.3114 71.2261 67.8622C71.664 67.2909 72.2488 67.0059 72.9828 67.0059C73.7168 67.0059 74.3418 67.2985 74.7923 67.8827C75.1128 68.2963 75.2757 68.8113 75.281 69.429H71.2938C71.3044 69.9549 71.4694 70.3847 71.7867 70.7216C72.105 71.0574 72.4974 71.2259 72.9648 71.2259C73.1901 71.2259 73.4101 71.1859 73.6237 71.106C73.8373 71.0261 74.0182 70.9192 74.1684 70.7874C74.3175 70.6546 74.4793 70.4408 74.6538 70.1449H74.6549ZM74.6549 68.9269C74.5787 68.6159 74.4677 68.3686 74.3228 68.1829C74.1768 67.9971 73.9854 67.8471 73.7453 67.7337C73.5063 67.6203 73.2546 67.5631 72.9913 67.5631C72.5566 67.5631 72.1822 67.7056 71.8702 67.9918C71.6418 68.2002 71.4694 68.5111 71.352 68.9269H74.6549Z" fill="#706F6F"/>
<path d="M80.7665 65.378V71.6476H80.2049V70.8701C79.9659 71.167 79.6983 71.3895 79.4011 71.5396C79.1039 71.6897 78.7792 71.7642 78.426 71.7642C77.7988 71.7642 77.2637 71.532 76.8195 71.0677C76.3753 70.6034 76.1543 70.0386 76.1543 69.3734C76.1543 68.7083 76.3785 68.1651 76.8259 67.7018C77.2743 67.2386 77.8126 67.0075 78.4429 67.0075C78.8067 67.0075 79.1356 67.0863 79.4307 67.244C79.7258 67.4017 79.9838 67.6392 80.2059 67.9545V65.377H80.7675L80.7665 65.378ZM78.4884 67.569C78.1711 67.569 77.8782 67.6489 77.6095 67.8077C77.3409 67.9664 77.1273 68.191 76.9686 68.4782C76.81 68.7666 76.7307 69.0711 76.7307 69.3918C76.7307 69.7125 76.8111 70.0149 76.9708 70.3053C77.1305 70.5958 77.3451 70.8226 77.6159 70.9845C77.8866 71.1465 78.1754 71.2275 78.4842 71.2275C78.793 71.2275 79.0912 71.1476 79.3704 70.9867C79.6496 70.8258 79.8643 70.6088 80.0156 70.3345C80.1657 70.0602 80.2408 69.7514 80.2408 69.408C80.2408 68.8843 80.0716 68.4469 79.7342 68.096C79.3969 67.744 78.9812 67.569 78.4873 67.569H78.4884Z" fill="#706F6F"/>
<path d="M85.7877 70.1449L86.2678 70.403C86.1102 70.7194 85.9283 70.9743 85.7221 71.1675C85.5159 71.3608 85.2832 71.5088 85.0252 71.6103C84.7671 71.7118 84.4752 71.7625 84.1484 71.7625C83.4261 71.7625 82.8603 71.5207 82.4531 71.0369C82.0459 70.5531 81.8418 70.0067 81.8418 69.3966C81.8418 68.8232 82.0142 68.3114 82.359 67.8622C82.7968 67.2909 83.3817 67.0059 84.1156 67.0059C84.8496 67.0059 85.4746 67.2985 85.9252 67.8827C86.2456 68.2963 86.4085 68.8113 86.4138 69.429H82.4266C82.4372 69.9549 82.6022 70.3847 82.9195 70.7216C83.2378 71.0574 83.6302 71.2259 84.0976 71.2259C84.3229 71.2259 84.5429 71.1859 84.7565 71.106C84.9702 71.0261 85.151 70.9192 85.3012 70.7874C85.4503 70.6546 85.6121 70.4408 85.7866 70.1449H85.7877ZM85.7877 68.9269C85.7115 68.6159 85.6005 68.3686 85.4556 68.1829C85.3096 67.9971 85.1182 67.8471 84.8781 67.7337C84.6391 67.6203 84.3874 67.5631 84.1241 67.5631C83.6894 67.5631 83.315 67.7056 83.003 67.9918C82.7746 68.2002 82.6022 68.5111 82.4848 68.9269H85.7877Z" fill="#706F6F"/>
<path d="M89.7057 67.6153L89.3398 68.0019C89.0352 67.6995 88.737 67.5484 88.4462 67.5484C88.2611 67.5484 88.1024 67.611 87.9702 67.7352C87.838 67.8593 87.7725 68.0051 87.7725 68.1714C87.7725 68.3183 87.8264 68.4586 87.9353 68.5915C88.0443 68.7275 88.2727 68.8863 88.6207 69.0698C89.0448 69.2944 89.3335 69.5104 89.4858 69.7188C89.6349 69.9294 89.71 70.167 89.71 70.4294C89.71 70.8008 89.582 71.115 89.3261 71.3731C89.0701 71.6312 88.7507 71.7597 88.3679 71.7597C88.112 71.7597 87.8687 71.7025 87.636 71.5891C87.4034 71.4757 87.2109 71.3191 87.0586 71.1194L87.4171 70.7036C87.708 71.0395 88.0168 71.2068 88.3436 71.2068C88.572 71.2068 88.7666 71.1323 88.9274 70.9822C89.0881 70.8321 89.1685 70.6561 89.1685 70.4542C89.1685 70.2879 89.1156 70.14 89.0099 70.0093C88.9041 69.8819 88.664 69.721 88.2917 69.5266C87.892 69.316 87.6202 69.1076 87.4753 68.9025C87.3304 68.6973 87.2595 68.463 87.2595 68.1995C87.2595 67.8561 87.3748 67.5699 87.6043 67.3432C87.8338 67.1164 88.1246 67.002 88.4747 67.002C88.8829 67.002 89.2933 67.206 89.7068 67.6131L89.7057 67.6153Z" fill="#706F6F"/>
</g>
<defs>
<clipPath id="clip0_5288_36552">
<rect width="90" height="71.7627" fill="white"/>
</clipPath>
</defs>
</svg>
