<svg xmlns="http://www.w3.org/2000/svg" width="74" height="58" viewBox="0 0 74 58" fill="none"><g clip-path="url(#clip0_3205_49309)"><path d="M9.587 19.9214H5.7774C4.09177 19.9092 2.80418 19.4746 1.91376 18.6176C1.02334 17.7605 0.578125 16.591 0.578125 15.1091V6.10938H9.60501V7.11914H3.84558C3.55649 7.1558 3.33088 7.23609 3.16875 7.35827C3.00663 7.48046 2.88567 7.65501 2.80761 7.88192C2.72955 8.10883 2.68408 8.39946 2.67207 8.75466C2.66006 9.10987 2.65406 9.53839 2.65406 10.0402V12.0789H7.58312V12.9238H2.65406V15.6973C2.65406 16.31 2.74671 16.818 2.93371 17.222C3.11986 17.6261 3.36091 17.9543 3.656 18.2047C3.95109 18.4552 4.28478 18.6306 4.65794 18.7284C5.03109 18.8261 5.40425 18.875 5.7774 18.875H9.587V19.9223V19.9214Z" fill="#1E120D"></path><path d="M19.9136 11.9884C19.0232 11.168 17.7828 10.7578 16.1941 10.7578C14.5213 10.7578 13.2303 11.168 12.3219 11.9884C11.4134 12.8088 10.9348 13.9294 10.8867 15.3493C10.8867 15.9131 10.9682 16.4699 11.1303 17.0206C11.2925 17.5713 11.5455 18.0618 11.8887 18.4903C12.2318 18.9188 12.6736 19.2653 13.2157 19.528C13.757 19.7916 14.4132 19.9103 15.1836 19.8867C15.7369 19.9478 16.2241 20.0918 16.6462 20.3187C17.0673 20.5448 17.3255 20.9401 17.4225 21.503V21.9438C17.4225 22.1646 17.4251 22.3871 17.4311 22.614C17.4371 22.8401 17.4371 23.0487 17.4311 23.2381C17.4251 23.4274 17.3195 23.6971 17.3075 23.746C17.3075 23.746 17.3298 23.7582 17.3684 23.78C17.8694 23.8944 18.3541 24.0907 18.7718 24.3848C18.8525 24.4136 18.9271 24.4512 18.9992 24.4922C19.0661 24.5254 19.1321 24.5611 19.1956 24.6004C19.2617 24.6048 19.3046 24.5917 19.3114 24.5524C19.5868 23.0103 19.5156 21.9447 19.5156 21.9447C19.4916 21.6628 19.4401 21.4184 19.362 21.2098C19.284 21.0012 19.1724 20.8179 19.0283 20.6591C18.8842 20.4994 18.7092 20.3502 18.5051 20.2088C18.3 20.0683 18.0538 19.9181 17.7648 19.7584C18.8722 19.5132 19.7326 19.0114 20.3468 18.2521C20.961 17.4928 21.2921 16.5258 21.3402 15.3502C21.2801 13.9302 20.8049 12.8096 19.9145 11.9893M19.2642 15.6626C19.2642 16.2753 19.1707 16.7894 18.9846 17.2057C18.7976 17.6219 18.554 17.9527 18.2529 18.198C17.9526 18.4432 17.6121 18.6143 17.2329 18.712C16.8537 18.8098 16.4772 18.8525 16.104 18.8403C15.7429 18.8525 15.3826 18.8132 15.0206 18.7207C14.6594 18.6291 14.3317 18.4703 14.0366 18.2433C13.7416 18.0164 13.4954 17.7171 13.2963 17.3435C13.0973 16.97 12.9858 16.5022 12.9618 15.9384V15.0203C12.9618 14.4085 13.0544 13.8971 13.2414 13.4869C13.4276 13.0767 13.6712 12.7494 13.9723 12.5042C14.2726 12.2598 14.6097 12.0853 14.9837 11.9805C15.3568 11.8767 15.73 11.8304 16.1031 11.8426C16.4763 11.8304 16.852 11.8732 17.232 11.9718C17.6112 12.0695 17.9509 12.2415 18.252 12.4858C18.5531 12.7311 18.7967 13.0619 18.9837 13.4773C19.1699 13.8936 19.2634 14.4076 19.2634 15.0203V15.6635L19.2642 15.6626Z" fill="#1E120D"></path><path d="M25.0968 17.1615C25.1928 17.5717 25.3378 17.899 25.53 18.1442C25.7221 18.3895 25.9632 18.564 26.2523 18.6679C26.5405 18.7717 26.8725 18.818 27.2448 18.8058C27.6179 18.818 27.961 18.7752 28.2741 18.6775C28.5873 18.5797 28.8549 18.4078 29.0779 18.1634C29.3001 17.9182 29.4717 17.5883 29.5926 17.1711C29.7127 16.7548 29.7728 16.2408 29.7728 15.6281V10.6875H31.8487V15.0591C31.8487 16.5532 31.4601 17.7314 30.6838 18.5946C29.9074 19.4577 28.7906 19.8897 27.3348 19.8897C26.5276 19.8897 25.8422 19.7763 25.2761 19.5502C24.7099 19.3233 24.2501 19.0021 23.895 18.5858C23.5398 18.1695 23.2808 17.6642 23.1186 17.0708C22.9565 16.4773 22.875 15.807 22.875 15.0591V10.6875H24.9509V15.6281C24.9509 16.2408 24.999 16.7513 25.095 17.1615" fill="#1E120D"></path><path d="M35.7986 10.6484H33.7227V19.869H35.7986V10.6484Z" fill="#1E120D"></path><path d="M46.5054 17.2047C46.3253 17.7685 46.0482 18.2485 45.675 18.6464C45.3019 19.0444 44.8232 19.3507 44.2399 19.5646C43.6557 19.7784 42.9489 19.8857 42.1185 19.8857C41.2881 19.8857 40.6499 19.7784 40.0966 19.5646C39.5424 19.3507 39.0861 19.0444 38.7249 18.6464C38.3638 18.2485 38.0927 17.7685 37.9126 17.2047C37.7316 16.6417 37.6295 16.0046 37.6055 15.2951C37.6295 14.5847 37.7316 13.9423 37.9126 13.3663C38.0927 12.7912 38.3638 12.2981 38.7249 11.8879C39.0861 11.4777 39.5433 11.16 40.0966 10.9331C40.6499 10.7071 41.3241 10.5936 42.1185 10.5936C42.6598 10.5936 43.1384 10.6573 43.5536 10.7865C43.9688 10.9148 44.3505 11.0649 44.6997 11.2368L44.7357 6.09375H46.8116V15.296C46.7876 16.0064 46.6847 16.6435 46.5045 17.2055M44.5547 13.4309C44.4346 13.0085 44.263 12.6655 44.04 12.4019C43.817 12.1384 43.5493 11.949 43.2371 11.832C42.924 11.716 42.5808 11.6636 42.2077 11.6758C41.8345 11.6636 41.4914 11.7125 41.1783 11.8224C40.8652 11.9324 40.5976 12.1192 40.3745 12.3827C40.1515 12.6463 39.9808 12.9919 39.8598 13.4204C39.7397 13.849 39.6797 14.37 39.6797 14.9818V15.625C39.6797 16.2377 39.7397 16.7517 39.8598 17.168C39.9799 17.5843 40.1515 17.9151 40.3745 18.1603C40.5976 18.4056 40.8652 18.5766 41.1783 18.6744C41.4914 18.7721 41.8345 18.8149 42.2077 18.8027C42.5808 18.8149 42.924 18.7686 43.2371 18.6648C43.5493 18.5609 43.8178 18.3864 44.04 18.1411C44.263 17.8968 44.4338 17.5695 44.5547 17.1584C44.6748 16.7482 44.7348 16.2368 44.7348 15.625V14.9818C44.7348 14.37 44.6748 13.8525 44.5547 13.43" fill="#1E120D"></path><path d="M57.5742 19.8865H55.4803V19.8315L55.4983 17.9952C55.2933 18.3749 55.0917 18.6873 54.8935 18.9317C54.6945 19.1769 54.4929 19.3698 54.2887 19.5103C54.0837 19.6517 53.8641 19.7495 53.6299 19.8044C53.3949 19.8594 53.1453 19.8873 52.8811 19.8873C52.0867 19.8873 51.4125 19.7835 50.8592 19.5749C50.305 19.3672 49.8478 19.0635 49.4866 18.6655C49.1255 18.2675 48.8553 17.7875 48.6743 17.2237C48.4933 16.6608 48.3912 16.0237 48.3672 15.3142C48.3912 14.6038 48.4933 13.9675 48.6743 13.4037C48.8553 12.8408 49.1255 12.3599 49.4866 11.962C49.8478 11.564 50.305 11.2576 50.8592 11.0438C51.4125 10.83 52.0867 10.7227 52.8811 10.7227C53.6754 10.7227 54.4183 10.83 55.0025 11.0438C55.5858 11.2576 56.0644 11.5649 56.4376 11.962C56.8108 12.3599 57.0878 12.8408 57.268 13.4037C57.4481 13.9675 57.5511 14.6038 57.5751 15.3142V19.8873L57.5742 19.8865ZM55.4983 14.9825C55.4983 14.3699 55.4374 13.8593 55.3173 13.4491C55.1972 13.0389 55.0256 12.7116 54.8026 12.4664C54.5796 12.222 54.3119 12.0475 53.9988 11.9428C53.6857 11.8389 53.3426 11.7926 52.9694 11.8049C52.5963 11.7926 52.2531 11.8354 51.94 11.9332C51.6269 12.0309 51.3593 12.2028 51.1362 12.4472C50.9132 12.6924 50.7416 13.0232 50.6215 13.4395C50.5015 13.8558 50.4405 14.3699 50.4405 14.9825V15.6257C50.4405 16.2384 50.5006 16.7525 50.6215 17.1687C50.7416 17.585 50.9132 17.9158 51.1362 18.1602C51.3593 18.4054 51.6261 18.5765 51.94 18.6742C52.2531 18.7729 52.5963 18.8156 52.9694 18.8034C53.7277 18.8278 54.3385 18.5093 54.8017 17.8477C55.265 17.1862 55.4966 16.2436 55.4966 15.0192V14.9825H55.4983Z" fill="#1E120D"></path><path d="M68.0258 17.2047C67.8456 17.7685 67.5686 18.2485 67.1954 18.6464C66.8223 19.0444 66.3436 19.3507 65.7603 19.5646C65.177 19.7784 64.4692 19.8857 63.6389 19.8857C62.8085 19.8857 62.1703 19.7784 61.617 19.5646C61.0628 19.3507 60.6056 19.0444 60.2445 18.6464C59.8833 18.2485 59.6122 17.7685 59.4321 17.2047C59.2511 16.6417 59.149 16.0046 59.125 15.2951C59.149 14.5847 59.2511 13.9423 59.4321 13.3663C59.6122 12.7912 59.8833 12.2981 60.2445 11.8879C60.6056 11.4777 61.0628 11.16 61.617 10.9331C62.1703 10.7071 62.8445 10.5936 63.6389 10.5936C64.1802 10.5936 64.6588 10.6573 65.074 10.7865C65.4892 10.9148 65.8709 11.0649 66.2209 11.2368L66.257 6.09375H68.3329V15.296C68.3089 16.0064 68.2059 16.6435 68.0258 17.2055M66.076 13.4309C65.9559 13.0085 65.7843 12.6655 65.5613 12.4019C65.3382 12.1384 65.0706 11.949 64.7583 11.832C64.4452 11.716 64.1021 11.6636 63.7289 11.6758C63.3558 11.6636 63.0127 11.7125 62.6996 11.8224C62.3864 11.9324 62.1188 12.1192 61.8958 12.3827C61.6727 12.6463 61.5012 12.9919 61.3811 13.4204C61.261 13.849 61.2009 14.37 61.2009 14.9818V15.625C61.2009 16.2377 61.261 16.7517 61.3811 17.168C61.5012 17.5843 61.6727 17.9151 61.8958 18.1603C62.1179 18.4056 62.3856 18.5766 62.6996 18.6744C63.0127 18.7721 63.3558 18.8149 63.7289 18.8027C64.1021 18.8149 64.4452 18.7686 64.7583 18.6648C65.0714 18.5609 65.3391 18.3864 65.5613 18.1411C65.7843 17.8968 65.9559 17.5695 66.076 17.1584C66.196 16.7482 66.2561 16.2368 66.2561 15.625V14.9818C66.2561 14.37 66.196 13.8525 66.076 13.43" fill="#1E120D"></path><path d="M21.5041 50.5148H26.0137L25.9751 31.4157C25.9751 29.8212 25.7306 28.3899 25.2425 27.1218C24.7544 25.8537 24.0338 24.7758 23.0833 23.8865C22.3173 23.1708 21.4149 22.5887 20.3812 22.1358C20.485 23.1761 20.2911 24.2338 19.7438 25.1223C20.2216 25.6006 20.624 26.1923 20.9439 26.9062C21.342 27.7955 21.541 28.8934 21.541 30.1999V35.6511H8.08942V30.1999C8.08942 28.8926 8.28844 27.8016 8.68647 26.9254C9.0845 26.05 9.6052 25.3501 10.2477 24.8273C10.8902 24.3045 11.6091 23.9319 12.406 23.7093C13.2021 23.4868 13.999 23.389 14.7959 23.4152C15.3715 23.3969 15.9514 23.4466 16.5347 23.5514C16.7509 22.7816 16.6162 21.9682 16.4952 21.1714C16.0089 21.1269 15.5079 21.1016 14.9889 21.1016C11.314 21.1016 8.50633 22.0232 6.56593 23.8664C4.62553 25.7097 3.65619 28.2267 3.65619 31.4157V45.3377C3.65619 46.8807 3.64932 48.0764 3.63646 48.9255C3.62273 49.7756 3.60386 50.3053 3.57812 50.5139H8.12717L8.08857 37.4551H21.541V49.0242C21.541 49.8088 21.5281 50.3053 21.5024 50.5139" fill="#44A82D"></path><path d="M29.2899 50.4757V30.8669C29.392 27.8341 30.4137 25.4419 32.3541 23.6903C34.2945 21.9396 37.0498 21.0625 40.6226 21.0625C44.1955 21.0625 46.6609 21.9387 48.5635 23.6903C50.4653 25.4428 51.4801 27.8341 51.6088 30.8669C51.5059 33.3769 50.799 35.4418 49.4883 37.0634C48.1775 38.685 46.34 39.7567 43.9759 40.2795C44.5927 40.6198 45.1322 40.9855 45.5946 41.3774C46.057 41.7692 46.443 42.2204 46.7509 42.7301C47.0598 43.2398 47.2965 43.835 47.4638 44.514C47.6311 45.1939 47.7143 45.9785 47.7143 46.8669V50.5141H43.1661C43.191 50.4356 43.2107 50.2008 43.2236 49.8081C43.2364 49.4162 43.2433 48.9842 43.2433 48.5138V45.9253C43.1661 45.0621 43.0443 44.363 42.877 43.8272C42.7097 43.2913 42.4464 42.8471 42.0869 42.4936C41.7267 42.141 41.2583 41.8207 40.6801 41.5327C40.1019 41.2456 39.3634 40.9183 38.4635 40.5526C37.7438 40.3702 36.9469 40.0691 36.0736 39.6511C35.1995 39.233 34.4154 38.6841 33.7223 38.0042V50.4749H29.2891L29.2899 50.4757ZM33.7232 32.1219C33.7738 33.3246 34.0122 34.3247 34.436 35.1224C34.8598 35.9201 35.3865 36.5607 36.0161 37.0442C36.6458 37.5286 37.3457 37.8681 38.1169 38.0636C38.8881 38.2599 39.6584 38.3446 40.4296 38.3184C41.2265 38.3446 42.0295 38.2538 42.8393 38.0444C43.6482 37.8349 44.3748 37.4692 45.0173 36.9465C45.6589 36.4237 46.1796 35.7176 46.5785 34.8283C46.9765 33.9398 47.1756 32.8419 47.1756 31.5346V30.1617C47.1756 28.8552 46.9757 27.7565 46.5785 26.868C46.1796 25.9795 45.6589 25.2735 45.0173 24.7507C44.3748 24.2279 43.649 23.8623 42.8393 23.6528C42.0295 23.4433 41.2265 23.3526 40.4296 23.3779C39.6327 23.3526 38.8358 23.4503 38.0397 23.672C37.2428 23.8946 36.5231 24.2672 35.8814 24.79C35.2389 25.3136 34.7182 26.0127 34.3202 26.8881C33.9213 27.7643 33.7232 28.8552 33.7232 30.1626V32.1237V32.1219Z" fill="#44A82D"></path><path d="M73.5787 50.5934H65.4449C61.8471 50.5672 59.0978 49.6394 57.196 47.8084C55.2942 45.9792 54.3438 43.4822 54.3438 40.3177V21.1016H58.7761V41.769C58.7761 43.0764 58.9751 44.1612 59.374 45.0235C59.7721 45.8866 60.2859 46.5857 60.9155 47.1216C61.5452 47.6574 62.258 48.0301 63.055 48.2396C63.851 48.449 64.6479 48.5529 65.4449 48.5529H73.5787V50.5925V50.5934Z" fill="#44A82D"></path><path fill-rule="evenodd" clip-rule="evenodd" d="M34.4326 0.00916382L34.4344 0.0144003C34.5356 1.58272 34.6462 6.58006 31.1369 7.26516C32.9117 9.69314 36.536 9.69314 38.3109 7.26516H38.3031C34.7929 6.58093 34.9036 1.58272 35.0048 0.0144003L35.0074 0.00916382C34.8152 -0.00305461 34.6231 -0.00305461 34.4318 0.00916382M39.0983 5.48738C39.6088 3.0053 37.9669 0.485682 35.4629 0.0624013V0.0641467C34.6248 3.99324 38.0449 5.18541 39.076 5.48127L39.0983 5.48826V5.48738ZM33.978 0.0641467C31.4792 0.492664 29.8424 3.00704 30.3503 5.48564C32.8045 4.68446 34.6196 3.07599 33.978 0.0650195V0.0641467Z" fill="#44A82D"></path><path d="M1.0243 54.2496H1.48666V54.8815C1.64793 54.6485 1.81264 54.4783 1.98249 54.3709C2.21581 54.2278 2.46201 54.1562 2.72021 54.1562C2.89435 54.1562 3.05991 54.1912 3.21604 54.2601C3.37216 54.329 3.50083 54.4216 3.59948 54.5376C3.69899 54.6528 3.78477 54.8178 3.85769 55.0334C4.01124 54.7462 4.20339 54.5289 4.43415 54.3797C4.6649 54.2304 4.91281 54.1562 5.17874 54.1562C5.42665 54.1562 5.64625 54.22 5.83583 54.3474C6.02541 54.4748 6.16695 54.6528 6.2596 54.8815C6.35224 55.1102 6.39771 55.4531 6.39771 55.9096V57.9056H5.92505V55.9096C5.92505 55.5177 5.8976 55.248 5.8427 55.1014C5.78779 54.9548 5.69429 54.8361 5.56133 54.7471C5.42837 54.6572 5.26967 54.6127 5.08524 54.6127C4.86134 54.6127 4.65632 54.6799 4.47103 54.8143C4.28574 54.9487 4.15021 55.1276 4.06443 55.3519C3.97864 55.5762 3.93575 55.9497 3.93575 56.4743V57.9056H3.47338V56.0335C3.47338 55.5919 3.44679 55.2926 3.39275 55.1346C3.33871 54.9766 3.24435 54.8501 3.11052 54.755C2.97585 54.6598 2.81629 54.6118 2.63186 54.6118C2.41826 54.6118 2.21839 54.6773 2.03224 54.8082C1.84609 54.9391 1.70884 55.1154 1.61963 55.3371C1.53041 55.5587 1.4858 55.8982 1.4858 56.3556V57.9047H1.02344V54.2488L1.0243 54.2496Z" fill="#706F6F"></path><path d="M10.9528 54.2492V57.9052H10.4973V57.2768C10.3034 57.5168 10.0864 57.6966 9.84532 57.8179C9.60427 57.9392 9.34092 57.9994 9.0544 57.9994C8.54571 57.9994 8.11165 57.8118 7.75137 57.4365C7.39108 57.0612 7.21094 56.6048 7.21094 56.0672C7.21094 55.5295 7.3928 55.0906 7.75566 54.7161C8.11937 54.3417 8.55601 54.155 9.06727 54.155C9.36236 54.155 9.62914 54.2187 9.86848 54.3461C10.1078 54.4735 10.3171 54.6655 10.4981 54.9204V54.2484H10.9536L10.9528 54.2492ZM9.10501 54.6088C8.84767 54.6088 8.61005 54.6734 8.39216 54.8017C8.17427 54.93 8.00099 55.1115 7.87232 55.3436C7.74365 55.5767 7.67931 55.8228 7.67931 56.082C7.67931 56.3412 7.7445 56.5856 7.87404 56.8203C8.00357 57.0551 8.17771 57.2384 8.39731 57.3693C8.61691 57.5002 8.8511 57.5657 9.10158 57.5657C9.35207 57.5657 9.59397 57.5011 9.82044 57.371C10.0469 57.241 10.221 57.0656 10.3437 56.8439C10.4655 56.6222 10.5264 56.3726 10.5264 56.0951C10.5264 55.6718 10.3892 55.3183 10.1155 55.0347C9.84189 54.7502 9.50476 54.6088 9.10416 54.6088H9.10501ZM9.38724 52.5352H10.0975L9.12303 53.5702H8.66752L9.38724 52.5352Z" fill="#706F6F"></path><path d="M13.8003 54.6481L13.5027 54.9605C13.2556 54.7161 13.0137 54.594 12.7778 54.594C12.6277 54.594 12.499 54.6446 12.3918 54.7449C12.2846 54.8462 12.2314 54.9631 12.2314 55.0975C12.2314 55.2162 12.2751 55.3297 12.3635 55.437C12.4518 55.547 12.6371 55.6753 12.9194 55.8237C13.2633 56.0052 13.4975 56.1797 13.6211 56.3482C13.742 56.5184 13.8029 56.7104 13.8029 56.9224C13.8029 57.2227 13.6991 57.4766 13.4915 57.6852C13.2839 57.8938 13.0249 57.9977 12.7143 57.9977C12.5067 57.9977 12.3094 57.9514 12.1207 57.8598C11.932 57.7681 11.7759 57.6416 11.6523 57.4801L11.9431 57.1441C12.179 57.4155 12.4295 57.5508 12.6946 57.5508C12.8799 57.5508 13.0377 57.4906 13.1681 57.3693C13.2985 57.248 13.3637 57.1057 13.3637 56.9425C13.3637 56.8081 13.3208 56.6885 13.235 56.5829C13.1492 56.48 12.9545 56.3499 12.6526 56.1928C12.3283 56.0226 12.1078 55.8542 11.9903 55.6884C11.8737 55.5226 11.8145 55.3332 11.8145 55.1202C11.8145 54.8427 11.908 54.6114 12.0941 54.4281C12.2803 54.2449 12.5162 54.1523 12.8001 54.1523C13.1312 54.1523 13.4641 54.3173 13.7995 54.6463L13.8003 54.6481Z" fill="#706F6F"></path><path d="M19.9803 55.008L19.614 55.2402C19.2974 54.8126 18.8651 54.5987 18.3178 54.5987C17.8803 54.5987 17.5166 54.7419 17.2275 55.0281C16.9384 55.3144 16.7934 55.6626 16.7934 56.0719C16.7934 56.3381 16.8604 56.5886 16.9933 56.8242C17.1263 57.059 17.309 57.2414 17.5406 57.3714C17.7722 57.5015 18.033 57.5661 18.3212 57.5661C18.8488 57.5661 19.2803 57.3522 19.6148 56.9246L19.9811 57.1698C19.8096 57.4334 19.5788 57.6368 19.2889 57.7825C18.9989 57.9274 18.6695 57.9998 18.2998 57.9998C17.7319 57.9998 17.2601 57.8165 16.8861 57.4491C16.5121 57.0817 16.3242 56.6348 16.3242 56.1086C16.3242 55.7542 16.4117 55.4261 16.5867 55.1224C16.7617 54.8187 17.0028 54.5821 17.3081 54.412C17.6144 54.2418 17.9567 54.1562 18.335 54.1562C18.5726 54.1562 18.8025 54.1929 19.0238 54.2671C19.2451 54.3413 19.433 54.4373 19.5865 54.556C19.7409 54.6747 19.8713 54.8256 19.9794 55.0098L19.9803 55.008Z" fill="#706F6F"></path><path d="M23.8959 56.6933L24.2853 56.9019C24.1575 57.1576 24.0099 57.3636 23.8427 57.5198C23.6754 57.6769 23.4867 57.7956 23.2774 57.8776C23.0681 57.9597 22.8313 58.0007 22.5662 58.0007C21.9803 58.0007 21.5214 57.8052 21.1911 57.4142C20.8609 57.0232 20.6953 56.5816 20.6953 56.0885C20.6953 55.6251 20.8351 55.2114 21.1148 54.8483C21.4699 54.3867 21.9443 54.1562 22.5396 54.1562C23.135 54.1562 23.6419 54.3928 24.0074 54.8649C24.2673 55.1992 24.3994 55.6155 24.4037 56.1147H21.1697C21.1783 56.5397 21.3121 56.8871 21.5694 57.1594C21.8276 57.4308 22.1459 57.5669 22.5251 57.5669C22.7078 57.5669 22.8862 57.5346 23.0595 57.4701C23.2328 57.4055 23.3794 57.3191 23.5013 57.2126C23.6222 57.1053 23.7535 56.9325 23.895 56.6933H23.8959ZM23.8959 55.7089C23.8341 55.4575 23.744 55.2577 23.6265 55.1075C23.5081 54.9574 23.3529 54.8361 23.1581 54.7445C22.9643 54.6528 22.7601 54.6066 22.5465 54.6066C22.1939 54.6066 21.8903 54.7218 21.6372 54.9531C21.4519 55.1215 21.3121 55.3729 21.2169 55.7089H23.8959Z" fill="#706F6F"></path><path d="M25.0898 54.2505H25.5625V54.7846C25.7032 54.5743 25.8524 54.4163 26.0086 54.3125C26.1647 54.2086 26.3277 54.1562 26.4975 54.1562C26.6253 54.1562 26.7617 54.1973 26.9067 54.2802L26.6657 54.6764C26.5687 54.6336 26.4872 54.6127 26.4212 54.6127C26.2668 54.6127 26.1184 54.6773 25.9751 54.8056C25.8319 54.9347 25.7229 55.1346 25.6483 55.4051C25.5908 55.6137 25.5625 56.0344 25.5625 56.6689V57.9056H25.0898V54.2496V54.2505Z" fill="#706F6F"></path><path d="M30.7889 55.008L30.4226 55.2402C30.106 54.8126 29.6737 54.5987 29.1264 54.5987C28.6889 54.5987 28.3252 54.7419 28.0361 55.0281C27.747 55.3144 27.602 55.6626 27.602 56.0719C27.602 56.3381 27.669 56.5886 27.8019 56.8242C27.9349 57.059 28.1176 57.2414 28.3492 57.3714C28.5808 57.5015 28.8416 57.5661 29.1298 57.5661C29.6574 57.5661 30.0889 57.3522 30.4234 56.9246L30.7897 57.1698C30.6182 57.4334 30.3874 57.6368 30.0975 57.7825C29.8075 57.9274 29.4781 57.9998 29.1084 57.9998C28.5405 57.9998 28.0687 57.8165 27.6947 57.4491C27.3207 57.0817 27.1328 56.6348 27.1328 56.1086C27.1328 55.7542 27.2203 55.4261 27.3953 55.1224C27.5703 54.8187 27.8114 54.5821 28.1167 54.412C28.423 54.2418 28.7653 54.1562 29.1436 54.1562C29.3812 54.1562 29.6111 54.1929 29.8324 54.2671C30.0537 54.3413 30.2416 54.4373 30.3951 54.556C30.5495 54.6747 30.6799 54.8256 30.788 55.0098L30.7889 55.008Z" fill="#706F6F"></path><path d="M35.2575 54.2505V57.9064H34.802V57.2781C34.6081 57.5181 34.3911 57.6978 34.15 57.8192C33.909 57.9405 33.6456 58.0007 33.3591 58.0007C32.8504 58.0007 32.4163 57.813 32.0561 57.4378C31.6958 57.0625 31.5156 56.606 31.5156 56.0684C31.5156 55.5308 31.6975 55.0918 32.0603 54.7174C32.4241 54.343 32.8607 54.1562 33.372 54.1562C33.667 54.1562 33.9338 54.22 34.1732 54.3474C34.4125 54.4748 34.6218 54.6668 34.8028 54.9216V54.2496H35.2583L35.2575 54.2505ZM33.4097 54.6101C33.1524 54.6101 32.9147 54.6747 32.6968 54.803C32.479 54.9312 32.3057 55.1128 32.177 55.3449C32.0483 55.578 31.984 55.8241 31.984 56.0833C31.984 56.3425 32.0492 56.5868 32.1787 56.8216C32.3083 57.0564 32.4824 57.2397 32.702 57.3706C32.9216 57.5015 33.1558 57.5669 33.4063 57.5669C33.6568 57.5669 33.8987 57.5024 34.1251 57.3723C34.3516 57.2423 34.5257 57.0669 34.6484 56.8452C34.7702 56.6235 34.8311 56.3739 34.8311 56.0964C34.8311 55.6731 34.6939 55.3196 34.4202 55.036C34.1466 54.7515 33.8094 54.6101 33.4088 54.6101H33.4097Z" fill="#706F6F"></path><path d="M41.7566 52.8368V57.904H41.3011V57.2756C41.1072 57.5156 40.8902 57.6954 40.6491 57.8167C40.4081 57.938 40.1447 57.9982 39.8582 57.9982C39.3495 57.9982 38.9155 57.8106 38.5552 57.4353C38.1949 57.06 38.0156 56.6036 38.0156 56.066C38.0156 55.5284 38.1975 55.0894 38.5603 54.715C38.9241 54.3406 39.3607 54.1538 39.872 54.1538C40.167 54.1538 40.4338 54.2175 40.6732 54.3449C40.9125 54.4723 41.1218 54.6643 41.3019 54.9192V52.8359H41.7575L41.7566 52.8368ZM39.9088 54.6076C39.6515 54.6076 39.4139 54.6722 39.196 54.8005C38.9781 54.9288 38.8048 55.1103 38.6761 55.3425C38.5475 55.5755 38.4831 55.8216 38.4831 56.0808C38.4831 56.34 38.5483 56.5844 38.6779 56.8191C38.8074 57.0539 38.9815 57.2372 39.2011 57.3681C39.4207 57.499 39.6549 57.5645 39.9054 57.5645C40.1559 57.5645 40.3978 57.4999 40.6243 57.3698C40.8507 57.2398 41.0249 57.0644 41.1475 56.8427C41.2694 56.621 41.3303 56.3714 41.3303 56.0939C41.3303 55.6706 41.193 55.3172 40.9194 55.0335C40.6457 54.749 40.3086 54.6076 39.908 54.6076H39.9088Z" fill="#706F6F"></path><path d="M45.8295 56.6933L46.2189 56.9019C46.0911 57.1576 45.9435 57.3636 45.7763 57.5198C45.609 57.676 45.4203 57.7956 45.211 57.8776C45.0016 57.9597 44.7649 58.0007 44.4998 58.0007C43.9139 58.0007 43.455 57.8052 43.1247 57.4142C42.7945 57.0232 42.6289 56.5816 42.6289 56.0885C42.6289 55.6251 42.7687 55.2114 43.0484 54.8483C43.4035 54.3867 43.8779 54.1562 44.4732 54.1562C45.0686 54.1562 45.5755 54.3928 45.941 54.8649C46.2009 55.1992 46.333 55.6155 46.3373 56.1147H43.1033C43.1119 56.5397 43.2457 56.8871 43.503 57.1594C43.7612 57.4308 44.0795 57.5669 44.4586 57.5669C44.6414 57.5669 44.8198 57.5346 44.9931 57.4701C45.1664 57.4055 45.313 57.3191 45.4348 57.2126C45.5558 57.1053 45.6871 56.9325 45.8286 56.6933H45.8295ZM45.8295 55.7089C45.7677 55.4575 45.6776 55.2577 45.5601 55.1075C45.4417 54.9574 45.2864 54.8361 45.0917 54.7445C44.8979 54.6528 44.6937 54.6066 44.4801 54.6066C44.1275 54.6066 43.8239 54.7218 43.5708 54.9531C43.3855 55.1215 43.2457 55.3729 43.1505 55.7089H45.8295Z" fill="#706F6F"></path><path d="M49.0156 54.2517H49.478V55.9588C49.478 56.376 49.5003 56.6623 49.544 56.8194C49.6101 57.0437 49.7362 57.2208 49.9232 57.35C50.1093 57.48 50.3315 57.5446 50.5897 57.5446C50.8479 57.5446 51.0667 57.4809 51.246 57.3544C51.4253 57.2278 51.5496 57.0611 51.6183 56.8551C51.6646 56.7138 51.6877 56.4153 51.6877 55.958V54.2509H52.1604V56.0452C52.1604 56.5497 52.1029 56.9293 51.9871 57.1842C51.8713 57.4399 51.6972 57.6397 51.4656 57.7837C51.2331 57.9286 50.9423 58.0002 50.5923 58.0002C50.2423 58.0002 49.9498 57.9277 49.7156 57.7837C49.4814 57.6389 49.3064 57.4373 49.1906 57.1789C49.0748 56.9206 49.0173 56.5314 49.0173 56.0112V54.25L49.0156 54.2517Z" fill="#706F6F"></path><path d="M54.9909 54.6481L54.6941 54.9605C54.447 54.7161 54.2051 54.594 53.9692 54.594C53.8191 54.594 53.6904 54.6446 53.5832 54.7449C53.476 54.8453 53.4228 54.9631 53.4228 55.0975C53.4228 55.2162 53.4665 55.3297 53.5549 55.437C53.6432 55.547 53.8285 55.6753 54.1108 55.8237C54.4547 56.0052 54.6889 56.1797 54.8125 56.3482C54.9334 56.5184 54.9943 56.7104 54.9943 56.9224C54.9943 57.2227 54.8905 57.4766 54.6829 57.6852C54.4753 57.8938 54.2163 57.9977 53.9057 57.9977C53.6981 57.9977 53.5008 57.9514 53.3121 57.8598C53.1234 57.7681 52.9673 57.6416 52.8438 57.4801L53.1346 57.1441C53.3705 57.4155 53.6209 57.5508 53.886 57.5508C54.0713 57.5508 54.2291 57.4906 54.3595 57.3693C54.4899 57.248 54.5551 57.1057 54.5551 56.9425C54.5551 56.8081 54.5122 56.6885 54.4264 56.5829C54.3407 56.48 54.1459 56.3499 53.844 56.1928C53.5197 56.0226 53.2993 55.8542 53.1817 55.6884C53.0642 55.5226 53.0067 55.3332 53.0067 55.1202C53.0067 54.8427 53.1002 54.6114 53.2864 54.4281C53.4725 54.2449 53.7084 54.1523 53.9924 54.1523C54.3235 54.1523 54.6563 54.3173 54.9917 54.6463L54.9909 54.6481Z" fill="#706F6F"></path><path d="M56.2164 52.8906H56.6788V54.2486H57.4122V54.6553H56.6788V57.9045H56.2164V54.6553H55.5859V54.2486H56.2164V52.8906Z" fill="#706F6F"></path><path d="M61.1302 56.6933L61.5197 56.9019C61.3919 57.1576 61.2443 57.3636 61.077 57.5198C60.9098 57.676 60.721 57.7956 60.5117 57.8776C60.3024 57.9597 60.0657 58.0007 59.8006 58.0007C59.2147 58.0007 58.7558 57.8052 58.4255 57.4142C58.0952 57.0232 57.9297 56.5816 57.9297 56.0885C57.9297 55.6251 58.0695 55.2114 58.3492 54.8483C58.7043 54.3867 59.1787 54.1562 59.774 54.1562C60.3693 54.1562 60.8763 54.3928 61.2417 54.8649C61.5017 55.1992 61.6338 55.6155 61.6381 56.1147H58.4041C58.4126 56.5397 58.5465 56.8871 58.8038 57.1594C59.062 57.4308 59.3803 57.5669 59.7594 57.5669C59.9421 57.5669 60.1206 57.5346 60.2939 57.4701C60.4671 57.4055 60.6138 57.3191 60.7356 57.2126C60.8566 57.1053 60.9878 56.9325 61.1294 56.6933H61.1302ZM61.1302 55.7089C61.0685 55.4575 60.9784 55.2577 60.8609 55.1075C60.7425 54.9574 60.5872 54.8361 60.3925 54.7445C60.1986 54.6528 59.9945 54.6066 59.7809 54.6066C59.4283 54.6066 59.1246 54.7218 58.8716 54.9531C58.6863 55.1215 58.5465 55.3729 58.4512 55.7089H61.1302Z" fill="#706F6F"></path><path d="M66.0847 52.8368V57.904H65.6292V57.2756C65.4353 57.5156 65.2183 57.6954 64.9773 57.8167C64.7362 57.938 64.4729 57.9982 64.1864 57.9982C63.6777 57.9982 63.2436 57.8106 62.8833 57.4353C62.523 57.06 62.3438 56.6036 62.3438 56.066C62.3438 55.5284 62.5256 55.0894 62.8885 54.715C63.2522 54.3406 63.6888 54.1538 64.2001 54.1538C64.4952 54.1538 64.762 54.2175 65.0013 54.3449C65.2406 54.4723 65.4499 54.6643 65.6301 54.9192V52.8359H66.0856L66.0847 52.8368ZM64.237 54.6076C63.9796 54.6076 63.742 54.6722 63.5241 54.8005C63.3062 54.9288 63.1329 55.1103 63.0043 55.3425C62.8756 55.5755 62.8113 55.8216 62.8113 56.0808C62.8113 56.34 62.8765 56.5844 63.006 56.8191C63.1355 57.0539 63.3097 57.2372 63.5293 57.3681C63.7489 57.499 63.983 57.5645 64.2335 57.5645C64.484 57.5645 64.7259 57.4999 64.9524 57.3698C65.1789 57.2398 65.353 57.0644 65.4757 56.8427C65.5975 56.621 65.6584 56.3714 65.6584 56.0939C65.6584 55.6706 65.5211 55.3172 65.2475 55.0335C64.9738 54.749 64.6367 54.6076 64.2361 54.6076H64.237Z" fill="#706F6F"></path><path d="M70.1615 56.6933L70.5509 56.9019C70.4231 57.1576 70.2756 57.3636 70.1083 57.5198C69.941 57.676 69.7523 57.7956 69.543 57.8776C69.3337 57.9597 69.0969 58.0007 68.8319 58.0007C68.246 58.0007 67.787 57.8052 67.4568 57.4142C67.1265 57.0232 66.9609 56.5816 66.9609 56.0885C66.9609 55.6251 67.1008 55.2114 67.3804 54.8483C67.7356 54.3867 68.2099 54.1562 68.8053 54.1562C69.4006 54.1562 69.9076 54.3928 70.273 54.8649C70.5329 55.1992 70.665 55.6155 70.6693 56.1147H67.4353C67.4439 56.5397 67.5777 56.8871 67.8351 57.1594C68.0933 57.4308 68.4115 57.5669 68.7907 57.5669C68.9734 57.5669 69.1518 57.5346 69.3251 57.4701C69.4984 57.4055 69.6451 57.3191 69.7669 57.2126C69.8878 57.1053 70.0191 56.9325 70.1606 56.6933H70.1615ZM70.1615 55.7089C70.0997 55.4575 70.0096 55.2577 69.8921 55.1075C69.7737 54.9574 69.6185 54.8361 69.4238 54.7445C69.2299 54.6528 69.0257 54.6066 68.8121 54.6066C68.4596 54.6066 68.1559 54.7218 67.9028 54.9531C67.7175 55.1215 67.5777 55.3729 67.4825 55.7089H70.1615Z" fill="#706F6F"></path><path d="M73.3385 54.6481L73.0417 54.9605C72.7947 54.7161 72.5528 54.594 72.3169 54.594C72.1668 54.594 72.0381 54.6446 71.9309 54.7449C71.8236 54.8453 71.7704 54.9631 71.7704 55.0975C71.7704 55.2162 71.8142 55.3297 71.9025 55.437C71.9909 55.547 72.1762 55.6753 72.4584 55.8237C72.8024 56.0052 73.0366 56.1797 73.1601 56.3482C73.2811 56.5184 73.342 56.7104 73.342 56.9224C73.342 57.2227 73.2382 57.4766 73.0306 57.6852C72.823 57.8938 72.5639 57.9977 72.2534 57.9977C72.0458 57.9977 71.8485 57.9514 71.6598 57.8598C71.4711 57.7681 71.3149 57.6416 71.1914 57.4801L71.4822 57.1441C71.7181 57.4155 71.9686 57.5508 72.2337 57.5508C72.419 57.5508 72.5768 57.4906 72.7072 57.3693C72.8376 57.248 72.9028 57.1057 72.9028 56.9425C72.9028 56.8081 72.8599 56.6885 72.7741 56.5829C72.6883 56.48 72.4936 56.3499 72.1916 56.1928C71.8674 56.0226 71.6469 55.8542 71.5294 55.6884C71.4119 55.5226 71.3544 55.3332 71.3544 55.1202C71.3544 54.8427 71.4479 54.6114 71.634 54.4281C71.8202 54.2449 72.0561 54.1523 72.34 54.1523C72.6712 54.1523 73.004 54.3173 73.3394 54.6463L73.3385 54.6481Z" fill="#706F6F"></path></g><defs><clipPath id="clip0_3205_49309"><rect width="73" height="58" fill="white" transform="translate(0.578125)"></rect></clipPath></defs></svg>