<svg width="108" height="108" viewBox="0 0 108 108" fill="none" xmlns="http://www.w3.org/2000/svg">
<rect width="108" height="108" rx="54" fill="#93B540" fill-opacity="0.2"/>
<mask id="mask0_10787_77934" style="mask-type:alpha" maskUnits="userSpaceOnUse" x="30" y="30" width="48" height="48">
<rect x="30" y="30" width="48" height="48" fill="#D9D9D9"/>
</mask>
<g mask="url(#mask0_10787_77934)">
<path d="M68.1 68.45L63.85 72.7L61.75 70.6L66 66.35L61.75 62.1L63.85 60L68.1 64.25L72.35 60L74.45 62.1L70.2 66.35L74.45 70.6L72.35 72.7L68.1 68.45ZM41.25 74C39.7833 74 38.5417 73.4917 37.525 72.475C36.5083 71.4583 36 70.2167 36 68.75V62H42V34H72V56.3C71.5333 56.1333 71.05 56 70.55 55.9C70.05 55.8 69.5333 55.7167 69 55.65V37H45V62H58.3C58.1 62.4667 57.9333 62.95 57.8 63.45C57.6667 63.95 57.5667 64.4667 57.5 65H39V68.75C39 69.3833 39.2167 69.9167 39.65 70.35C40.0833 70.7833 40.6 71 41.2 71H58.45C58.7167 71.5667 59.0333 72.1 59.4 72.6C59.7667 73.1 60.1667 73.5667 60.6 74H41.25ZM48 46V43H66V46H48ZM48 52V49H66V52H48ZM58.45 71H39H57.5H57.4H58.45Z" fill="#3A8340"/>
</g>
</svg>
