<svg width="108" height="109" viewBox="0 0 108 109" fill="none" xmlns="http://www.w3.org/2000/svg">
<rect y="0.75" width="108" height="108" rx="54" fill="#93B540" fill-opacity="0.2"/>
<mask id="mask0_11041_64462" style="mask-type:alpha" maskUnits="userSpaceOnUse" x="30" y="30" width="48" height="49">
<rect x="30" y="30.75" width="48" height="48" fill="#D9D9D9"/>
</mask>
<g mask="url(#mask0_11041_64462)">
<path d="M53.988 71.75C56.7627 71.75 59.125 70.779 61.075 68.837C63.025 66.8947 64 64.5363 64 61.762C64 58.9873 63.029 56.625 61.087 54.675C59.1447 52.725 56.7863 51.75 54.012 51.75C51.2373 51.75 48.875 52.721 46.925 54.663C44.975 56.6053 44 58.9637 44 61.738C44 64.5127 44.971 66.875 46.913 68.825C48.8553 70.775 51.2137 71.75 53.988 71.75ZM47.3 50.6C48.2333 50.0333 49.2333 49.5917 50.3 49.275C51.3667 48.9583 52.4833 48.7833 53.65 48.75L48.15 37.75H40.85L47.3 50.6ZM60.7 50.6L67.15 37.75H59.85L55.7 46.1L57.2 49.1C57.8333 49.2667 58.4417 49.475 59.025 49.725C59.6083 49.975 60.1667 50.2667 60.7 50.6ZM43.65 69.6C42.8167 68.5 42.1667 67.2917 41.7 65.975C41.2333 64.6583 41 63.25 41 61.75C41 60.25 41.2333 58.8417 41.7 57.525C42.1667 56.2083 42.8167 55 43.65 53.9C41.75 54.2333 40.1667 55.125 38.9 56.575C37.6333 58.025 37 59.75 37 61.75C37 63.75 37.6333 65.475 38.9 66.925C40.1667 68.375 41.75 69.2667 43.65 69.6ZM64.35 69.6C66.25 69.2667 67.8333 68.375 69.1 66.925C70.3667 65.475 71 63.75 71 61.75C71 59.75 70.3667 58.025 69.1 56.575C67.8333 55.125 66.25 54.2333 64.35 53.9C65.1833 55 65.8333 56.2083 66.3 57.525C66.7667 58.8417 67 60.25 67 61.75C67 63.25 66.7667 64.6583 66.3 65.975C65.8333 67.2917 65.1833 68.5 64.35 69.6ZM54 74.75C52.6667 74.75 51.3917 74.5583 50.175 74.175C48.9583 73.7917 47.8333 73.2667 46.8 72.6C46.5 72.6667 46.2 72.7083 45.9 72.725C45.6 72.7417 45.2833 72.75 44.95 72.75C41.9167 72.75 39.3333 71.6833 37.2 69.55C35.0667 67.4167 34 64.8333 34 61.8C34 58.9 34.9667 56.4167 36.9 54.35C38.8333 52.2833 41.2167 51.1333 44.05 50.9L36 34.75H50L54 42.75L58 34.75H72L64 50.8C66.8333 51.0667 69.2083 52.2333 71.125 54.3C73.0417 56.3667 74 58.85 74 61.75C74 64.8167 72.9333 67.4167 70.8 69.55C68.6667 71.6833 66.0667 72.75 63 72.75C62.7 72.75 62.3917 72.7417 62.075 72.725C61.7583 72.7083 61.45 72.6667 61.15 72.6C60.1167 73.2667 59 73.7917 57.8 74.175C56.6 74.5583 55.3333 74.75 54 74.75ZM50.3 67.25L51.7 62.7L48 60.05H52.55L54 55.25L55.45 60.05H60L56.3 62.7L57.7 67.25L54 64.45L50.3 67.25Z" fill="#579E44"/>
</g>
</svg>
